<?xml version="1.0" encoding="utf-8"?>
<!-- Generator: Adobe Illustrator 25.4.1, SVG Export Plug-In . SVG Version: 6.00 Build 0)  -->
<svg version="1.1" id="Layer_1" xmlns="http://www.w3.org/2000/svg" xmlns:xlink="http://www.w3.org/1999/xlink" x="0px" y="0px"
	 viewBox="0 0 256.6 55" style="enable-background:new 0 0 256.6 55;" xml:space="preserve">
<style type="text/css">
	.st0{fill:#1F71F2;}
	.st1{fill:#61EABC;}
	.st2{fill:#FFFFFF;}
</style>
<g id="_x23_1f71f2ff">
	<path class="st0" d="M23.4,4.3h0.7c0.9,0.2,1.8,0.4,2.6,0.9c0.6,0.3,1,0.8,1.4,1.3c0.6,0.8,1.1,1.7,1.4,2.6c0.3,1,0.5,2,0.8,2.9
		c0.3,1,0.8,2,1.4,2.8c0.4,0.6,1,1.1,1.6,1.5c0.8,0.5,1.7,0.6,2.5,0.7c2.2,0,4.5,0,6.7,0c0.6,0,1.2,0,1.8,0c0.8,0.1,1.5,0.3,2.2,0.7
		c0.3,0.2,0.6,0.4,0.8,0.7c0.4,0.5,0.8,1,1.1,1.6c1,1.6,1.7,3.2,2.6,4.9c-0.5,0-0.9,0-1.4,0c-0.4,0-0.8,0-1.3,0c-2.6,0-5.2,0-7.8,0
		c-0.8-0.1-1.5,0-2.3,0c-0.6,0-1.1,0-1.7-0.1c-0.7-0.1-1.5-0.3-2.1-0.7c-0.8-0.4-1.5-1.1-2.1-1.9c-0.5-0.7-0.9-1.5-1.4-2.3
		c-0.9-1.7-1.7-3.4-2.7-5c-0.4-0.6-0.9-1.2-1.5-1.6c-0.7-0.5-1.6-0.7-2.4-0.9c-1.1-0.2-2.1-0.2-3.2-0.3c-0.8-0.1-1.5,0-2.3,0
		c1.1-1.9,2.3-3.8,3.4-5.6C22.6,5.7,23,5,23.4,4.3z"/>
	<path class="st0" d="M16.9,23.3c0.2,0,0.4,0,0.6,0c1.3,0,2.6,0,3.9,0c0.7,0,1.4,0,2.1,0c1.1,0,2.3,0.2,3.3,0.7
		c0.6,0.3,1.2,0.7,1.7,1.2c0.6,0.7,1,1.5,1.5,2.3c0.8,1.5,1.7,3.1,2.5,4.6c0.5,0.9,1,1.9,1.6,2.8c0.4,0.6,0.9,1.2,1.5,1.6
		c0.9,0.7,2,1,3.1,1.1c1.1,0.1,2.3,0.1,3.4,0.1c5.4,0,10.7,0,16.1,0c0.5,0,1,0,1.5,0c0.7,0,1.4,0,2.1,0c1.1,0,2.2,0.2,3.1,0.7
		c0.8,0.4,1.3,1.1,1.7,1.8c0.9,1.7,1.9,3.3,2.8,5c0.3,0.5,0.6,1.1,0.9,1.6c-8.9,0-17.9,0-26.8,0c-2.1,0-4.3-0.8-5.9-2.2
		c-0.7-0.7-1.3-1.4-1.8-2.3c-0.9-1.6-1.8-3.1-2.6-4.7c-0.6-1.1-1.3-2.1-2.2-3c-0.6-0.6-1.4-1-2.2-1.3c-1.3-0.5-2.6-0.6-3.9-0.7
		c-0.8,0-1.6-0.1-2.4-0.1c-1.5,0-3,0-4.5,0c-0.9,0-1.8,0-2.7,0c-2.2,0-4.5,0-6.7,0c-0.8,0-1.6,0-2.4,0c1.7-2.8,3.4-5.6,5.1-8.3
		c0.2-0.3,0.3-0.6,0.5-0.8c0.1,0,0.3,0,0.4,0C13.8,23.3,15.3,23.3,16.9,23.3z"/>
</g>
<g id="_x23_61eabcff">
	<path class="st1" d="M17.4,14.3c0.1-0.2,0.2-0.4,0.4-0.5c0.6,0,1.3,0,1.9,0c1.2,0,2.4,0,3.6,0.1c0.8,0.1,1.6,0.3,2.3,0.6
		c0.9,0.4,1.6,1.1,2.1,2c0.4,0.8,0.8,1.5,1.3,2.3c0.5,1,1.1,1.9,1.6,2.9c0.4,0.7,0.8,1.5,1.3,2.2c0.8,1.2,2,2.2,3.5,2.6
		c0.8,0.2,1.6,0.3,2.4,0.3c0.6,0,1.2,0,1.8,0c1.5,0,3,0,4.5,0c1.2,0,2.4,0,3.5,0c2.5,0,4.9,0,7.4,0c1.1,0,2.2,0.1,3.2,0.5
		c0.8,0.3,1.5,0.9,2.1,1.6c0.5,0.6,0.9,1.3,1.2,2c0.5,1,1.1,2.1,1.6,3.1c0.3,0.5,0.6,1.1,0.8,1.6c-0.7,0-1.4,0-2.1,0
		c-0.5,0-1,0-1.5,0c-1.4,0-2.8,0-4.2,0c-1,0.1-2,0-3,0c-0.8,0-1.5,0-2.3,0c-0.5,0-0.9,0-1.4,0c-0.9,0-1.8,0-2.7,0
		c-0.5,0-1.1,0-1.6,0c-1.1,0-2.2,0-3.2,0c-0.6,0-1.3,0-1.9,0c-0.6,0-1.3,0-1.9-0.2c-0.8-0.2-1.6-0.5-2.2-1c-0.9-0.7-1.5-1.6-1.9-2.6
		c-0.7-1.3-1.3-2.6-2.1-3.8c-0.3-0.5-0.5-1-0.8-1.4c-0.4-0.7-0.8-1.4-1.2-2c-0.5-0.8-1.2-1.4-2-1.8c-1.3-0.7-2.9-1-4.4-1
		c-0.7,0-1.4,0-2.1,0c-2.5,0-4.9,0-7.4,0c-0.4,0-0.8,0-1.2,0c0.9-1.5,1.9-3,2.8-4.6C16.2,16.2,16.8,15.2,17.4,14.3z"/>
</g>
<g id="_x23_93ada8ff">
	<path class="st2" d="M113.8,16.6c1.6-0.7,3.3-1,5-1c1,0,2.1,0,3.1,0.3c1.3,0.3,2.6,1,3.4,2.2c0.7,1,0.9,2.2,0.9,3.4c-2,0-4,0-6,0
		c-0.1-0.4-0.1-0.8-0.4-1c-0.5-0.4-1.1-0.5-1.7-0.5c-0.5,0-1.1,0-1.6,0.2c-0.5,0.2-0.6,0.9-0.5,1.4c0.3,0.5,0.9,0.7,1.4,0.9
		c1.3,0.4,2.5,0.6,3.8,1c1.3,0.4,2.5,0.9,3.4,1.8c0.7,0.7,1,1.8,1,2.8c-0.1,1.1-0.3,2.2-0.9,3.1c-0.5,1.1-1.4,1.8-2.4,2.5
		c-1.5,1-3.2,1.2-4.9,1.6h-3.2c-1-0.3-2.1-0.5-3.1-1.1c-1.1-0.7-2.2-1.6-2.6-2.9c-0.3-0.7-0.3-1.5-0.3-2.3c2,0,4,0,6,0
		c0.1,0.5,0.2,1,0.6,1.4c0.9,0.7,2.1,0.8,3.1,0.4c0.5-0.1,1.1-0.3,1.3-0.9c0.1-0.4,0.2-0.9-0.2-1.1c-0.7-0.6-1.6-0.8-2.4-1
		c-1.4-0.4-2.7-0.7-4-1.2c-0.6-0.3-1.3-0.6-1.8-1.1c-0.3-0.3-0.6-0.7-0.8-1.1c-0.4-0.6-0.4-1.4-0.4-2.1c0-1.3,0.5-2.7,1.4-3.7
		C111.9,17.7,112.8,17,113.8,16.6z"/>
	<path class="st2" d="M83.8,16.1c2.1-0.1,4.2,0,6.3,0c-0.2,2-0.6,3.9-0.8,5.9c-0.3,1.6-0.5,3.2-0.7,4.9c-0.2,1.3-0.4,2.6-1,3.9
		c-0.6,1.2-1.5,2.4-2.7,3.1c-1.1,0.7-2.4,1.1-3.7,1.3h-2.3c-0.9-0.1-1.8-0.3-2.7-0.6c-1.1-0.5-2.1-1.3-2.6-2.4
		c-0.2-0.4-0.3-0.9-0.4-1.4v-2.1c0.1-0.7,0.3-1.3,0.4-2c1.9,0,3.7,0,5.6,0c-0.1,1-0.3,1.9-0.2,2.9c0.1,0.4,0.2,0.8,0.6,1
		c0.6,0.3,1.4,0.1,1.8-0.5c0.6-0.8,0.7-1.8,0.8-2.7c0.3-1.6,0.5-3.2,0.7-4.8C83.2,20.3,83.5,18.2,83.8,16.1z"/>
	<path class="st2" d="M97.2,16.1c2.1,0,4.2,0,6.3,0c0.4,1.7,0.7,3.4,1.1,5.1c1,4.5,2,9,2.9,13.5c-1.1,0.1-2.2,0-3.3,0
		c-1,0-1.9,0-2.9-0.1c-0.1-0.8-0.2-1.6-0.4-2.4c-1.6,0-3.3,0-4.9,0c-0.4,0-0.8,0-1.2,0c-0.2,0.2-0.3,0.4-0.4,0.6
		c-0.2,0.6-0.5,1.2-0.8,1.8c-1,0.1-2.1,0-3.1,0c-1,0-1.9,0-2.9,0c0.3-0.8,0.8-1.6,1.2-2.4c0.6-1.2,1.2-2.3,1.8-3.5
		c0.6-1,1-2.1,1.6-3.1c0.8-1.6,1.7-3.2,2.5-4.9C95.6,19.3,96.3,17.6,97.2,16.1 M98.6,23.5c-0.6,1.2-1,2.5-1.6,3.7
		c-0.1,0.3-0.3,0.7-0.2,1c0.8,0.1,1.5,0,2.3,0c0.4,0,0.8,0.1,1.2-0.1c0.1-0.7-0.2-1.4-0.2-2.1c-0.3-1.4-0.4-2.9-0.7-4.3
		C99.1,22.4,98.9,23,98.6,23.5z"/>
	<path class="st2" d="M134.7,16.1c0.3-0.1,0.6-0.1,1-0.1c1.8,0,3.6,0,5.4,0c1,4.6,2,9.3,3,13.9c0.3,1.5,0.7,3.1,1,4.6
		c-1,0.1-2.1,0-3.1,0c-1,0-2,0-3.1,0c-0.1-0.8-0.2-1.6-0.4-2.4c-0.8-0.1-1.7,0-2.5-0.1c-1.2,0-2.5,0-3.7,0c-0.4,0.8-0.7,1.6-1.1,2.4
		c-1,0.1-2,0-3,0c-1,0-2,0-3,0c0.2-0.7,0.6-1.3,0.9-1.9c0.9-1.6,1.7-3.2,2.5-4.8c0.9-1.7,1.7-3.5,2.7-5.2c0.3-0.7,0.8-1.4,1.1-2.2
		c0.7-1.2,1.3-2.5,1.9-3.7C134.4,16.6,134.5,16.3,134.7,16.1 M136.3,23c-0.4,1-0.9,2-1.3,3c-0.3,0.7-0.7,1.4-0.9,2.2
		c1.2,0,2.5,0,3.7,0c-0.1-1.6-0.5-3.3-0.7-4.9c0-0.4-0.1-0.8-0.3-1.2C136.7,22.4,136.5,22.7,136.3,23z"/>
	<path class="st2" d="M151.6,16.1c1-0.1,2,0,2.9,0c3.4,0,6.7,0,10.1,0c1.5,0,3,0,4.4,0c-0.1,1.6-0.5,3.3-0.7,4.9
		c-1.9,0.1-3.7,0-5.6,0.1c-0.6,3.7-1.1,7.4-1.7,11.1c-0.2,0.8-0.2,1.6-0.4,2.4c-0.3,0.1-0.7,0.1-1,0.1c-1.7,0-3.5,0-5.2,0
		c0.3-2.4,0.7-4.7,1-7c0.4-2.2,0.6-4.4,1-6.5c-1.9-0.1-3.7,0-5.6,0C151.1,19.4,151.4,17.7,151.6,16.1z"/>
	<path class="st2" d="M170.7,16.1c1-0.1,2.1,0,3.1,0c1.1,0,2.1,0,3.2,0c-0.1,1-0.3,1.9-0.4,2.9c-0.8,5.2-1.5,10.4-2.4,15.6
		c-1,0.1-2,0-3,0c-1.1,0-2.2,0-3.2,0c0.3-2.5,0.8-4.9,1.1-7.4c0.1-1,0.4-2,0.5-3C169.9,21.5,170.3,18.8,170.7,16.1z"/>
	<path class="st2" d="M178.6,16.1c1.3-0.1,2.6,0,3.9,0c2.2,0,4.3-0.1,6.5,0.1c1,0,1.9,0.1,2.8,0.3c1,0.2,2.1,0.6,2.7,1.5
		c0.5,0.6,0.7,1.4,0.7,2.2c0,0.9-0.1,1.8-0.4,2.7c-0.3,0.9-1,1.7-1.8,2.3c-0.4,0.3-0.9,0.5-1.4,0.8c0.6,0.5,1.5,0.8,2,1.6
		c0.4,0.8,0.3,1.6,0.3,2.5c-0.1,1.1-0.3,2.2-0.4,3.3c-0.1,0.6,0.6,0.9,0.5,1.4c-1,0.1-2.1,0-3.1,0.1c-1.1,0-2.2,0-3.3,0
		c-0.1-1.2,0-2.4,0.2-3.5c0-0.7,0.2-1.5-0.2-2.2c-0.2-0.4-0.7-0.5-1.1-0.6c-1-0.1-2.1-0.2-3.1-0.1c-0.4,0-0.5,0.4-0.5,0.7
		c-0.2,1.9-0.6,3.8-0.9,5.7c-1,0.1-2,0-3,0c-1.1,0-2.2,0-3.2,0c0-1.1,0.3-2.2,0.4-3.2c0.2-1.2,0.3-2.5,0.5-3.7
		C177.5,23.8,178.1,20,178.6,16.1 M184.3,20.5c-0.2,1.2-0.4,2.4-0.5,3.6c1.2,0,2.4,0.1,3.6-0.1c0.8-0.1,1.8-0.5,2-1.4
		c0.1-0.5,0.1-1.2-0.3-1.6c-0.4-0.3-0.9-0.5-1.4-0.5C186.5,20.4,185.4,20.4,184.3,20.5z"/>
	<path class="st2" d="M197.7,16.1c1-0.1,2,0,3,0c4.8,0,9.5,0,14.3,0c0,0.9-0.2,1.9-0.3,2.8c-0.1,0.7-0.2,1.4-0.4,2.1
		c-1.8,0-3.7,0-5.5,0c-0.3,1.2-0.4,2.5-0.6,3.8c-0.3,2.2-0.7,4.4-1,6.6c-0.2,1.1-0.3,2.2-0.5,3.2c-1.1,0.1-2.2,0-3.3,0
		c-0.9,0-1.9,0-2.8,0c0-0.9,0.3-1.8,0.4-2.6c0.4-2.6,0.8-5.2,1.2-7.9c0.1-1,0.3-2,0.4-3.1c-1.9-0.1-3.7,0-5.6-0.1
		C197.2,19.4,197.5,17.7,197.7,16.1z"/>
	<path class="st2" d="M219,16.2c0.3-0.1,0.6-0.1,0.8-0.1c1.8,0,3.7,0,5.5,0c0.2,1,0.4,2,0.6,3c0.9,4.2,1.9,8.4,2.7,12.6
		c0.2,1,0.5,1.9,0.6,2.9c-2.1,0-4.1,0.1-6.2,0c-0.1-0.8-0.3-1.6-0.4-2.4c-2,0-4,0-6,0c-0.3,0-0.3,0.2-0.4,0.4
		c-0.3,0.7-0.6,1.3-0.9,2c-1,0.1-2.1,0-3.1,0c-1,0-1.9,0-2.9,0c0.3-0.8,0.7-1.6,1.1-2.3c0.5-0.8,0.8-1.7,1.3-2.5
		c1.4-2.5,2.6-5,4-7.5c0.9-1.9,2-3.7,2.9-5.6C218.8,16.5,218.9,16.3,219,16.2 M220.9,22.6c-0.4,1-0.9,2.1-1.4,3.1
		c-0.3,0.8-0.7,1.6-1.1,2.4c0.7,0.2,1.5,0.1,2.2,0.1c0.5,0,1,0.1,1.5-0.1c0-0.5-0.1-0.9-0.2-1.3c-0.3-1.7-0.5-3.3-0.8-5
		C221.1,22.1,221,22.4,220.9,22.6z"/>
	<path class="st2" d="M240.8,16.1c0.9-0.1,1.8,0,2.7,0c2.3,0,4.7,0,7,0v0.7c-0.3,1-0.4,2.1-0.5,3.2c-0.7,0-1.3,0-2,0
		c-0.4,2.5-0.7,5-1.1,7.6c-0.1,1-0.3,2-0.4,3.1c0.6,0,1.2,0,1.9,0c-0.1,1.3-0.4,2.6-0.5,3.9c-0.8,0.1-1.5,0-2.3,0
		c-2.5,0-4.9,0-7.4,0c0.2-1.3,0.4-2.6,0.6-3.9c0.7,0,1.3,0,2,0c0.2-1.3,0.4-2.7,0.6-4.1c0.3-2.2,0.7-4.4,0.9-6.5c-0.7,0-1.3,0-2-0.1
		C240.4,18.7,240.5,17.4,240.8,16.1z"/>
</g>
</svg>
